<svg id="Layer_1" data-name="Layer 1" xmlns="http://www.w3.org/2000/svg" viewBox="0 0 1000 1000" role="img" aria-label="Loading">
  <defs>
    <style>
      .cls-1{fill:#e52f49;}
      .cls-2{fill:#dc2c48;}
      .frame{filter:drop-shadow(0 34px 52px rgba(220,44,72,.22));transform-box:fill-box;transform-origin:center;animation:frameBreath 2.4s ease-in-out infinite;}
      .sq{transform-box:fill-box;transform-origin:center;animation:squarePulse 1.55s ease-in-out infinite;}
      .sq-1{animation-delay:0ms;}
      .sq-2{animation-delay:90ms;}
      .sq-3{animation-delay:180ms;}
      .sq-4{animation-delay:270ms;}
      .sq-5{animation-delay:360ms;}
      .sq-6{animation-delay:450ms;}
      .sq-7{animation-delay:540ms;}
      .sq-8{animation-delay:630ms;}
      .sq-9{animation-delay:720ms;}
      @keyframes squarePulse{
        0%,100%{opacity:.56;transform:scale(.86);}
        42%{opacity:1;transform:scale(1.07);}
        70%{opacity:.78;transform:scale(.96);}
      }
      @keyframes frameBreath{
        0%,100%{transform:scale(1);filter:drop-shadow(0 24px 38px rgba(220,44,72,.18));}
        50%{transform:scale(1.025);filter:drop-shadow(0 36px 62px rgba(229,47,73,.34));}
      }
      @media (prefers-reduced-motion: reduce){
        .frame,.sq{animation:none;}
      }
    </style>
  </defs>
  <g class="frame">
    <rect class="cls-1 sq sq-1" x="586.49" y="296.34" width="116.62" height="116.62"/>
    <rect class="cls-1 sq sq-2" x="586.49" y="441.69" width="116.62" height="116.62"/>
    <rect class="cls-1 sq sq-3" x="586.49" y="587.04" width="116.62" height="116.62"/>
    <rect class="cls-1 sq sq-4" x="441.69" y="296.34" width="116.62" height="116.62"/>
    <rect class="cls-1 sq sq-5" x="441.69" y="441.69" width="116.62" height="116.62"/>
    <rect class="cls-1 sq sq-6" x="441.69" y="587.04" width="116.62" height="116.62"/>
    <rect class="cls-1 sq sq-7" x="296.89" y="296.34" width="116.62" height="116.62"/>
    <rect class="cls-1 sq sq-8" x="296.89" y="441.69" width="116.62" height="116.62"/>
    <rect class="cls-1 sq sq-9" x="296.89" y="587.04" width="116.62" height="116.62"/>
    <polygon class="cls-2" points="967.28 74.86 967.28 925.14 649.88 925.14 649.88 774.57 816.75 774.57 816.75 225.43 649.88 225.43 649.88 74.86 967.28 74.86"/>
    <polygon class="cls-2" points="183.25 225.43 183.25 774.57 350.12 774.57 350.12 925.14 32.72 925.14 32.72 74.86 350.12 74.86 350.12 225.43 183.25 225.43"/>
  </g>
</svg>
