<svg id="Layer_1" data-name="Layer 1" xmlns="http://www.w3.org/2000/svg" viewBox="0 0 1000 500"><defs><style>.cls-1{fill:#e52f49;}.cls-2,.cls-3{fill:#dc2c48;}.cls-3{font-size:285.35px;font-family:VnHelvBlack;}.cls-4{fill:#FFFFFF;}</style></defs><rect class="cls-1" x="202.73" y="169.77" width="29.75" height="29.75"/><rect class="cls-1" x="202.73" y="206.85" width="29.75" height="29.75"/><rect class="cls-1" x="202.73" y="243.93" width="29.75" height="29.75"/><rect class="cls-1" x="165.79" y="169.77" width="29.75" height="29.75"/><rect class="cls-1" x="165.79" y="206.85" width="29.75" height="29.75"/><rect class="cls-1" x="165.79" y="243.93" width="29.75" height="29.75"/><rect class="cls-1" x="128.85" y="169.77" width="29.75" height="29.75"/><rect class="cls-1" x="128.85" y="206.85" width="29.75" height="29.75"/><rect class="cls-1" x="128.85" y="243.93" width="29.75" height="29.75"/><polygon class="cls-2" points="299.87 113.27 299.87 330.18 218.9 330.18 218.9 291.77 261.47 291.77 261.47 151.68 218.9 151.68 218.9 113.27 299.87 113.27"/><polygon class="cls-2" points="99.86 151.68 99.86 291.77 142.43 291.77 142.43 330.18 61.46 330.18 61.46 113.27 142.43 113.27 142.43 151.68 99.86 151.68"/><text class="cls-3" transform="translate(348.29 334.16) scale(0.99 1)">hub</text><path class="cls-4" d="M450.57,395.32a26.53,26.53,0,0,1-4.9,1.71,21.63,21.63,0,0,1-5,.57q-6.84,0-10.09-4t-3.26-10.84q0-6.84,3.26-10.83t10.09-4a21.63,21.63,0,0,1,5,.57,26.53,26.53,0,0,1,4.9,1.71v4.94q-3.26-1-5.37-1.43a18.84,18.84,0,0,0-3.76-.43,6.9,6.9,0,0,0-5.66,2.39q-1.93,2.39-1.94,7.07c0,3.16.64,5.52,1.92,7.1a6.89,6.89,0,0,0,5.68,2.37,18.24,18.24,0,0,0,3.72-.43q2.07-.42,5.41-1.39Z"/><path class="cls-4" d="M464.17,397.52a10.48,10.48,0,0,1-5.7-1.44,8.58,8.58,0,0,1-3.36-3.93,15.48,15.48,0,0,1,0-11.36,8.58,8.58,0,0,1,3.36-3.93,11.92,11.92,0,0,1,11.36,0,8.68,8.68,0,0,1,3.38,3.93,15.21,15.21,0,0,1,0,11.36,8.68,8.68,0,0,1-3.38,3.93A10.41,10.41,0,0,1,464.17,397.52Zm0-17.87a3.83,3.83,0,0,0-3.44,1.9,10.61,10.61,0,0,0,0,9.84,3.83,3.83,0,0,0,3.44,1.9,3.7,3.7,0,0,0,3.38-1.88,11.27,11.27,0,0,0,0-9.88A3.72,3.72,0,0,0,464.17,379.65Z"/><path class="cls-4" d="M477.69,397.14V376h5.95v1.65a15.21,15.21,0,0,1,3.23-1.6,10.86,10.86,0,0,1,3.36-.47,6,6,0,0,1,4.71,1.78,7.19,7.19,0,0,1,1.63,5.06v14.75h-6V384.42q0-3.12-3-3.12a5.06,5.06,0,0,0-2.09.46,10.19,10.19,0,0,0-1.88,1.1v14.28Z"/><path class="cls-4" d="M500.37,397.14V376h6v1.65a15,15,0,0,1,3.23-1.6,10.77,10.77,0,0,1,3.36-.47,6,6,0,0,1,4.7,1.78,7.19,7.19,0,0,1,1.63,5.06v14.75h-6V384.42q0-3.12-3-3.12a5,5,0,0,0-2.09.46,9.57,9.57,0,0,0-1.88,1.1v14.28Z"/><path class="cls-4" d="M529.18,387.21a6,6,0,0,0,1.67,4.1,6.65,6.65,0,0,0,4.71,1.43,17.56,17.56,0,0,0,2.81-.21,12.89,12.89,0,0,0,2.59-.72l1.48,4.06a17.17,17.17,0,0,1-4.22,1.33,25.85,25.85,0,0,1-3.8.27q-5.71,0-8.58-3.06c-1.92-2-2.87-4.83-2.87-8.38a14.19,14.19,0,0,1,1.22-6,9.26,9.26,0,0,1,3.55-4.06,10.21,10.21,0,0,1,5.49-1.43,8.8,8.8,0,0,1,5.32,1.58,8.31,8.31,0,0,1,3.09,4.46,14.52,14.52,0,0,1,.25,6.67Zm7.6-3.55a7.85,7.85,0,0,0-.42-2.68,3.54,3.54,0,0,0-1.27-1.75,3.52,3.52,0,0,0-4.79.82,6.34,6.34,0,0,0-1.12,3.61Z"/><path class="cls-4" d="M563.43,396.17a19.66,19.66,0,0,1-3.44,1.09,16.62,16.62,0,0,1-3.1.26,11.83,11.83,0,0,1-5.85-1.4,9.43,9.43,0,0,1-3.87-4,14.57,14.57,0,0,1,0-12.25,9.33,9.33,0,0,1,3.87-4,12,12,0,0,1,5.85-1.37,18.38,18.38,0,0,1,3.1.27,21.41,21.41,0,0,1,3.06.78l-1.69,4.31-.12,0a18.34,18.34,0,0,0-2-.49,11.37,11.37,0,0,0-1.66-.1,5.24,5.24,0,0,0-4.17,1.79,8.71,8.71,0,0,0,0,9.89,5.21,5.21,0,0,0,4.17,1.79,10.25,10.25,0,0,0,4.35-1.09Z"/><path class="cls-4" d="M573.32,391.35a1.68,1.68,0,0,0,.55,1.41,2.11,2.11,0,0,0,1.39.45c.28,0,.62,0,1,0a3.68,3.68,0,0,0,.84-.13v4.22a17.33,17.33,0,0,1-2.2.26c-.87.05-1.59.08-2.15.08-2,0-3.36-.47-4.16-1.41a6.53,6.53,0,0,1-1.2-4.29V381h-2.62l.76-4.43h1.86V371.5l5.91-1.44v6.51h4.1L576.7,381h-3.38Z"/><path class="cls-4" d="M583.75,397.39a2.45,2.45,0,0,1-1.79-.74,2.41,2.41,0,0,1-.74-1.79,2.26,2.26,0,0,1,.72-1.8,2.51,2.51,0,0,1,1.81-.74,2.55,2.55,0,0,1,1.8.74,2.27,2.27,0,0,1,.74,1.8,2.61,2.61,0,0,1-.78,1.79A2.43,2.43,0,0,1,583.75,397.39Z"/><path class="cls-4" d="M599.93,368.37h8.15l4,8.91,3,7h0l2.79-7,3.8-8.91h8.28v28.81h-6.5l.12-19.39-6.67,14.91h-4.48l-6.67-14.91.17,19.39h-6Z"/><path class="cls-4" d="M645.93,382.82q0-3.21-2.75-3.53a15.35,15.35,0,0,0-6.84,1.2l-1.05-3.92a23.5,23.5,0,0,1,7.56-1.76,9.75,9.75,0,0,1,6.44,1.63c1.73,1.24,2.6,3.29,2.6,6.17v14.53h-6v-2.5a8.42,8.42,0,0,1-6.34,2.88,5.17,5.17,0,0,1-4.11-1.71,6.27,6.27,0,0,1-1.5-4.29,6.62,6.62,0,0,1,1.43-4.23,8.75,8.75,0,0,1,4.14-2.74,17.62,17.62,0,0,1,6.38-.8Zm0,4.26a7.5,7.5,0,0,0-3.57.3,4.6,4.6,0,0,0-2.15,1.5,3.14,3.14,0,0,0-.7,1.88,2,2,0,0,0,.76,1.67,3.08,3.08,0,0,0,1.9.57,5.21,5.21,0,0,0,2-.4,5.88,5.88,0,0,0,1.73-1.17Z"/><path class="cls-4" d="M655.69,397.14V376h5.95v1.65a15,15,0,0,1,3.24-1.6,10.74,10.74,0,0,1,3.35-.47,6,6,0,0,1,4.71,1.78,7.19,7.19,0,0,1,1.63,5.06v14.75h-6V384.42q0-3.12-3-3.12a5.06,5.06,0,0,0-2.09.46,10.19,10.19,0,0,0-1.88,1.1v14.28Z"/><path class="cls-4" d="M690.16,382.82q0-3.21-2.75-3.53a15.35,15.35,0,0,0-6.84,1.2l-1.06-3.92a23.63,23.63,0,0,1,7.56-1.76,9.73,9.73,0,0,1,6.44,1.63c1.74,1.24,2.6,3.29,2.6,6.17v14.53h-6v-2.5a8.45,8.45,0,0,1-6.34,2.88,5.19,5.19,0,0,1-4.12-1.71,6.27,6.27,0,0,1-1.5-4.29,6.63,6.63,0,0,1,1.44-4.23,8.75,8.75,0,0,1,4.14-2.74,17.62,17.62,0,0,1,6.38-.8Zm0,4.26a7.5,7.5,0,0,0-3.57.3,4.69,4.69,0,0,0-2.16,1.5,3.19,3.19,0,0,0-.69,1.88,2,2,0,0,0,.76,1.67,3.06,3.06,0,0,0,1.9.57,5.13,5.13,0,0,0,2-.4,6.05,6.05,0,0,0,1.74-1.17Z"/><path class="cls-4" d="M702.24,400a14.58,14.58,0,0,0,5.24,1.22,6.55,6.55,0,0,0,4.09-1,3.73,3.73,0,0,0,1.57-3.25v-2.28a6.71,6.71,0,0,1-2.37,1.77,6.8,6.8,0,0,1-2.83.63,7.37,7.37,0,0,1-4.6-1.43,8.83,8.83,0,0,1-2.88-4,15.84,15.84,0,0,1-1-5.68,14.07,14.07,0,0,1,2-8A6.83,6.83,0,0,1,707.6,375a6.75,6.75,0,0,1,3,.7,7.61,7.61,0,0,1,2.47,1.84h.09v-2.12h5.91v21.72a7.85,7.85,0,0,1-2.6,6.23,10.77,10.77,0,0,1-6.71,2.47,19.06,19.06,0,0,1-8.43-1.61Zm7.6-7.73a4.68,4.68,0,0,0,1.88-.38,6.84,6.84,0,0,0,1.42-.8v-9.47a5.42,5.42,0,0,0-1.42-.82,4.84,4.84,0,0,0-1.88-.36,3.55,3.55,0,0,0-3,1.52,6.83,6.83,0,0,0-1.1,4.06,8.21,8.21,0,0,0,1.1,4.62A3.47,3.47,0,0,0,709.84,392.28Z"/><path class="cls-4" d="M729,387.21a6,6,0,0,0,1.66,4.1,6.65,6.65,0,0,0,4.71,1.43,17.47,17.47,0,0,0,2.81-.21,12.8,12.8,0,0,0,2.6-.72l1.48,4.06A17.3,17.3,0,0,1,738,397.2a26,26,0,0,1-3.81.27q-5.7,0-8.57-3.06c-1.92-2-2.87-4.83-2.87-8.38a14,14,0,0,1,1.22-6,9.26,9.26,0,0,1,3.55-4.06A10.21,10.21,0,0,1,733,374.5a8.8,8.8,0,0,1,5.32,1.58,8.31,8.31,0,0,1,3.09,4.46,14.52,14.52,0,0,1,.25,6.67Zm7.6-3.55a7.85,7.85,0,0,0-.42-2.68,3.54,3.54,0,0,0-1.27-1.75,3.52,3.52,0,0,0-4.79.82,6.34,6.34,0,0,0-1.12,3.61Z"/><path class="cls-4" d="M750.35,397.39a2.48,2.48,0,0,1-1.8-.74,2.44,2.44,0,0,1-.73-1.79,2.28,2.28,0,0,1,.71-1.8,2.58,2.58,0,0,1,3.62,0,2.23,2.23,0,0,1,.73,1.8,2.52,2.52,0,0,1-.78,1.79A2.39,2.39,0,0,1,750.35,397.39Z"/><path class="cls-4" d="M789.34,382.73v12.59a26.53,26.53,0,0,1-4.9,1.71,21.63,21.63,0,0,1-5,.57q-6.84,0-10.09-4t-3.26-10.84q0-6.84,3.26-10.83t10.09-4a19.89,19.89,0,0,1,4.78.55,26.64,26.64,0,0,1,4.81,1.73v5.15a24.69,24.69,0,0,0-4.41-1.52,19.43,19.43,0,0,0-4.42-.55,6.9,6.9,0,0,0-5.66,2.39q-1.93,2.39-1.94,7.07a13.62,13.62,0,0,0,.89,5.22,6.81,6.81,0,0,0,2.47,3.19,6.44,6.44,0,0,0,3.65,1.06,11,11,0,0,0,1.52-.11,9.92,9.92,0,0,0,1.69-.4v-9Z"/><path class="cls-4" d="M793.56,397.14V376h6v4.14h0a6.76,6.76,0,0,1,2.83-3.1,8.15,8.15,0,0,1,4-1v4.6a6,6,0,0,0-2.83.38,8.37,8.37,0,0,0-2.64,1.52,4,4,0,0,0-1.37,2v12.59Z"/><path class="cls-4" d="M818.36,397.52a10.52,10.52,0,0,1-5.71-1.44,8.5,8.5,0,0,1-3.35-3.93,15.48,15.48,0,0,1,0-11.36,8.5,8.5,0,0,1,3.35-3.93,10.52,10.52,0,0,1,5.71-1.44,10.41,10.41,0,0,1,5.66,1.44,8.74,8.74,0,0,1,3.38,3.93,15.34,15.34,0,0,1,0,11.36,8.74,8.74,0,0,1-3.38,3.93A10.41,10.41,0,0,1,818.36,397.52Zm0-17.87a3.85,3.85,0,0,0-3.45,1.9,10.69,10.69,0,0,0,0,9.84,3.85,3.85,0,0,0,3.45,1.9,3.7,3.7,0,0,0,3.38-1.88,11.27,11.27,0,0,0,0-9.88A3.72,3.72,0,0,0,818.36,379.65Z"/><path class="cls-4" d="M830.61,375.68H837l3.88,16.3H841l3.71-16.3h6.13l3.71,16.3h.09l3.89-16.3h6.37l-6.42,21.46H851l-3.8-14.32H848l-3.8,14.32H837Z"/></svg>
